<svg xmlns="http://www.w3.org/2000/svg" xmlns:xlink="http://www.w3.org/1999/xlink" width="500" zoomAndPan="magnify" viewBox="0 0 375 374.999991" height="500" preserveAspectRatio="xMidYMid meet" version="1.0"><defs><clipPath id="037ff7c0a8"><path d="M 186 108.09375 L 189 108.09375 L 189 123 L 186 123 Z M 186 108.09375 " clip-rule="nonzero"/></clipPath><clipPath id="88c0f2ccb1"><path d="M 108.09375 163 L 267.09375 163 L 267.09375 267 L 108.09375 267 Z M 108.09375 163 " clip-rule="nonzero"/></clipPath></defs><rect x="-37.5" width="450" fill="#ffffff" y="-37.499999" height="449.999989" fill-opacity="1"/><rect x="-37.5" width="450" fill="#ffffff" y="-37.499999" height="449.999989" fill-opacity="1"/><rect x="-37.5" width="450" fill="#3ea0e0" y="-37.499999" height="449.999989" fill-opacity="1"/><path fill="#000000" d="M 260.121094 185.5 L 248.960938 185.5 C 248.1875 185.5 247.566406 186.121094 247.566406 186.894531 C 247.566406 187.667969 248.1875 188.289062 248.960938 188.289062 L 260.121094 188.289062 C 260.894531 188.289062 261.515625 187.667969 261.515625 186.894531 C 261.515625 186.121094 260.894531 185.5 260.121094 185.5 " fill-opacity="1" fill-rule="evenodd"/><path fill="#ffd064" d="M 187.59375 126.878906 C 218.386719 126.878906 243.382812 151.875 243.382812 182.667969 C 243.382812 213.460938 218.386719 238.457031 187.59375 238.457031 C 156.800781 238.457031 131.804688 213.460938 131.804688 182.667969 C 131.804688 151.875 156.800781 126.878906 187.59375 126.878906 " fill-opacity="1" fill-rule="evenodd"/><path fill="#000000" d="M 187.59375 125.484375 C 156.035156 125.484375 130.410156 151.101562 130.410156 182.667969 C 130.410156 214.222656 156.035156 239.851562 187.59375 239.851562 C 219.148438 239.851562 244.777344 214.222656 244.777344 182.667969 C 244.777344 151.101562 219.148438 125.484375 187.59375 125.484375 Z M 187.59375 128.273438 C 217.613281 128.273438 241.988281 152.648438 241.988281 182.667969 C 241.988281 212.6875 217.613281 237.0625 187.59375 237.0625 C 157.574219 237.0625 133.199219 212.6875 133.199219 182.667969 C 133.199219 152.648438 157.574219 128.273438 187.59375 128.273438 " fill-opacity="1" fill-rule="evenodd"/><path fill="#000000" d="M 115.066406 184.0625 L 126.222656 184.0625 C 127 184.0625 127.621094 183.429688 127.621094 182.667969 C 127.621094 181.894531 127 181.273438 126.222656 181.273438 L 115.066406 181.273438 C 114.292969 181.273438 113.671875 181.894531 113.671875 182.667969 C 113.671875 183.429688 114.292969 184.0625 115.066406 184.0625 " fill-opacity="1" fill-rule="evenodd"/><g clip-path="url(#037ff7c0a8)"><path fill="#000000" d="M 186.199219 110.140625 L 186.199219 121.300781 C 186.199219 122.0625 186.820312 122.695312 187.59375 122.695312 C 188.367188 122.695312 188.988281 122.0625 188.988281 121.300781 L 188.988281 110.140625 C 188.988281 109.367188 188.367188 108.746094 187.59375 108.746094 C 186.820312 108.746094 186.199219 109.367188 186.199219 110.140625 " fill-opacity="1" fill-rule="evenodd"/></g><path fill="#000000" d="M 124.089844 147.601562 L 133.742188 153.183594 C 134.417969 153.574219 135.269531 153.34375 135.648438 152.679688 C 136.042969 152.003906 135.8125 151.15625 135.136719 150.773438 L 125.484375 145.195312 C 124.808594 144.804688 123.957031 145.03125 123.578125 145.707031 C 123.195312 146.371094 123.414062 147.222656 124.089844 147.601562 " fill-opacity="1" fill-rule="evenodd"/><path fill="#000000" d="M 222.648438 119.164062 L 217.066406 128.816406 C 216.6875 129.484375 216.914062 130.34375 217.578125 130.726562 C 218.246094 131.117188 219.09375 130.878906 219.488281 130.210938 L 225.066406 120.558594 C 225.445312 119.882812 225.21875 119.03125 224.554688 118.652344 C 223.890625 118.257812 223.039062 118.488281 222.648438 119.164062 " fill-opacity="1" fill-rule="evenodd"/><path fill="#000000" d="M 150.121094 120.558594 L 155.699219 130.210938 C 156.089844 130.878906 156.941406 131.117188 157.605469 130.726562 C 158.269531 130.34375 158.5 129.484375 158.117188 128.816406 L 152.539062 119.164062 C 152.148438 118.488281 151.296875 118.257812 150.632812 118.652344 C 149.96875 119.03125 149.738281 119.882812 150.121094 120.558594 " fill-opacity="1" fill-rule="evenodd"/><path fill="#000000" d="M 249.703125 145.195312 L 240.046875 150.773438 C 239.371094 151.15625 239.144531 152.003906 239.535156 152.679688 C 239.917969 153.34375 240.765625 153.574219 241.441406 153.183594 L 251.097656 147.601562 C 251.773438 147.222656 252 146.371094 251.609375 145.707031 C 251.226562 145.03125 250.378906 144.804688 249.703125 145.195312 " fill-opacity="1" fill-rule="evenodd"/><path fill="#fcb860" d="M 231.015625 217.679688 C 220.785156 230.351562 205.125 238.457031 187.59375 238.457031 C 156.800781 238.457031 131.804688 213.460938 131.804688 182.667969 C 131.804688 165.125 139.910156 149.476562 152.582031 139.234375 C 144.855469 148.8125 140.214844 160.996094 140.214844 174.253906 C 140.214844 205.039062 165.210938 230.046875 196.003906 230.046875 C 209.265625 230.046875 221.449219 225.402344 231.015625 217.679688 " fill-opacity="1" fill-rule="evenodd"/><path fill="#000000" d="M 232.105469 218.550781 C 232.550781 217.992188 232.507812 217.1875 232.007812 216.6875 C 231.496094 216.183594 230.699219 216.140625 230.144531 216.589844 C 220.804688 224.128906 208.929688 228.652344 196.003906 228.652344 C 165.984375 228.652344 141.609375 204.273438 141.609375 174.253906 C 141.609375 161.332031 146.132812 149.457031 153.671875 140.117188 C 154.121094 139.5625 154.074219 138.753906 153.574219 138.253906 C 153.0625 137.753906 152.265625 137.710938 151.710938 138.15625 C 138.722656 148.636719 130.410156 164.6875 130.410156 182.667969 C 130.410156 214.222656 156.035156 239.851562 187.59375 239.851562 C 205.5625 239.851562 221.613281 231.539062 232.105469 218.550781 Z M 144.390625 149.628906 C 137.371094 158.792969 133.199219 170.246094 133.199219 182.667969 C 133.199219 212.6875 157.574219 237.0625 187.59375 237.0625 C 200.015625 237.0625 211.46875 232.890625 220.628906 225.871094 C 213.167969 229.433594 204.820312 231.441406 196.003906 231.441406 C 164.449219 231.441406 138.820312 205.8125 138.820312 174.253906 C 138.820312 165.441406 140.824219 157.082031 144.390625 149.628906 " fill-opacity="1" fill-rule="evenodd"/><path fill="#9bb9c1" d="M 163.566406 166.257812 C 166.75 156.363281 176.042969 149.195312 186.992188 149.195312 C 200.570312 149.195312 211.597656 160.222656 211.597656 173.796875 C 211.597656 176.445312 211.183594 178.984375 210.410156 181.382812 C 216.71875 184.453125 221.066406 190.925781 221.066406 198.402344 C 221.066406 208.808594 212.65625 217.265625 202.257812 217.328125 L 131.988281 217.328125 C 122.640625 217.273438 115.066406 209.65625 115.066406 200.296875 C 115.066406 190.894531 122.703125 183.265625 132.097656 183.265625 C 132.773438 183.265625 133.425781 183.300781 134.070312 183.375 C 134.972656 172.707031 143.921875 164.328125 154.816406 164.328125 C 157.945312 164.328125 160.90625 165.027344 163.566406 166.257812 " fill-opacity="1" fill-rule="evenodd"/><path fill="#000000" d="M 162.75 164.394531 C 166.519531 154.6875 175.957031 147.800781 186.992188 147.800781 C 201.34375 147.800781 212.992188 159.449219 212.992188 173.796875 C 212.992188 176.171875 212.675781 178.484375 212.078125 180.671875 C 218.265625 184.160156 222.460938 190.796875 222.460938 198.402344 C 222.460938 209.582031 213.429688 218.660156 202.269531 218.722656 L 131.988281 218.722656 C 121.867188 218.667969 113.671875 210.433594 113.671875 200.296875 C 113.671875 190.121094 121.929688 181.871094 132.097656 181.871094 C 132.347656 181.871094 132.597656 181.871094 132.839844 181.882812 C 134.429688 171.171875 143.667969 162.933594 154.816406 162.933594 C 157.605469 162.933594 160.285156 163.457031 162.75 164.394531 Z M 162.976562 167.523438 C 163.335938 167.695312 163.761719 167.695312 164.121094 167.53125 C 164.492188 167.378906 164.777344 167.0625 164.894531 166.683594 C 167.902344 157.34375 176.664062 150.589844 186.992188 150.589844 C 199.808594 150.589844 210.203125 160.984375 210.203125 173.796875 C 210.203125 176.292969 209.8125 178.691406 209.082031 180.945312 C 208.875 181.609375 209.179688 182.328125 209.800781 182.636719 C 215.640625 185.480469 219.671875 191.472656 219.671875 198.402344 C 219.671875 208.046875 211.882812 215.878906 202.25 215.933594 C 202.257812 215.933594 202.140625 215.933594 202.140625 215.933594 C 202.140625 215.933594 132.097656 215.933594 132.097656 215.933594 C 132.109375 215.933594 132 215.933594 132 215.933594 C 123.414062 215.878906 116.460938 208.894531 116.460938 200.296875 C 116.460938 191.667969 123.46875 184.660156 132.097656 184.660156 C 132.71875 184.660156 133.316406 184.695312 133.90625 184.761719 C 134.289062 184.804688 134.660156 184.695312 134.953125 184.453125 C 135.246094 184.214844 135.421875 183.867188 135.464844 183.496094 C 136.304688 173.546875 144.648438 165.722656 154.816406 165.722656 C 157.726562 165.722656 160.492188 166.367188 162.976562 167.523438 " fill-opacity="1" fill-rule="evenodd"/><path fill="#dae7ef" d="M 180.957031 189.730469 C 185.652344 175.148438 199.351562 164.578125 215.488281 164.578125 C 235.503906 164.578125 251.75 180.828125 251.75 200.84375 C 251.75 204.742188 251.128906 208.492188 249.996094 212.011719 C 259.292969 216.542969 265.699219 226.078125 265.699219 237.105469 C 265.699219 252.449219 253.296875 264.902344 237.988281 265 L 134.429688 265 C 120.644531 264.914062 109.488281 253.703125 109.488281 239.894531 C 109.488281 226.035156 120.734375 214.789062 134.59375 214.789062 C 135.574219 214.789062 136.542969 214.84375 137.492188 214.953125 C 138.832031 199.253906 152.015625 186.894531 168.066406 186.894531 C 172.675781 186.894531 177.046875 187.910156 180.957031 189.730469 " fill-opacity="1" fill-rule="evenodd"/><g clip-path="url(#88c0f2ccb1)"><path fill="#000000" d="M 180.140625 187.855469 C 185.433594 173.460938 199.273438 163.183594 215.488281 163.183594 C 236.277344 163.183594 253.144531 180.050781 253.144531 200.84375 C 253.144531 204.472656 252.632812 207.980469 251.675781 211.304688 C 260.847656 216.25 267.09375 225.960938 267.09375 237.105469 C 267.09375 253.210938 254.070312 266.285156 237.988281 266.394531 L 134.417969 266.394531 C 119.871094 266.308594 108.09375 254.464844 108.09375 239.894531 C 108.09375 225.273438 119.96875 213.394531 134.59375 213.394531 C 135.148438 213.394531 135.703125 213.417969 136.25 213.449219 C 138.285156 197.695312 151.765625 185.5 168.066406 185.5 C 172.339844 185.5 176.414062 186.339844 180.140625 187.855469 Z M 180.367188 191.003906 C 180.738281 191.167969 181.152344 191.167969 181.523438 191.015625 C 181.882812 190.851562 182.167969 190.546875 182.285156 190.152344 C 186.808594 176.128906 199.972656 165.972656 215.488281 165.972656 C 234.730469 165.972656 250.355469 181.601562 250.355469 200.84375 C 250.355469 204.589844 249.769531 208.199219 248.667969 211.585938 C 248.449219 212.25 248.753906 212.960938 249.386719 213.265625 C 258.210938 217.570312 264.304688 226.632812 264.304688 237.105469 C 264.304688 251.675781 252.523438 263.519531 237.976562 263.605469 C 237.976562 263.605469 237.792969 263.605469 237.792969 263.605469 C 237.804688 263.605469 134.59375 263.605469 134.59375 263.605469 C 134.605469 263.605469 134.429688 263.605469 134.429688 263.605469 C 121.417969 263.519531 110.882812 252.925781 110.882812 239.894531 C 110.882812 226.808594 121.507812 216.183594 134.59375 216.183594 C 135.519531 216.183594 136.433594 216.238281 137.328125 216.335938 C 137.710938 216.382812 138.089844 216.273438 138.375 216.03125 C 138.667969 215.792969 138.851562 215.453125 138.886719 215.074219 C 140.148438 200.082031 152.746094 188.289062 168.066406 188.289062 C 172.46875 188.289062 176.632812 189.261719 180.367188 191.003906 " fill-opacity="1" fill-rule="evenodd"/></g></svg>