<svg xmlns="http://www.w3.org/2000/svg" xmlns:xlink="http://www.w3.org/1999/xlink" width="500" zoomAndPan="magnify" viewBox="0 0 375 374.999991" height="500" preserveAspectRatio="xMidYMid meet" version="1.0"><defs><clipPath id="b44ca935a7"><path d="M 100.398438 100.398438 L 225 100.398438 L 225 274.398438 L 100.398438 274.398438 Z M 100.398438 100.398438 " clip-rule="nonzero"/></clipPath><clipPath id="d005d3bb75"><path d="M 100.398438 109 L 274.398438 109 L 274.398438 274.398438 L 100.398438 274.398438 Z M 100.398438 109 " clip-rule="nonzero"/></clipPath><clipPath id="f7f8afcfbd"><path d="M 242 109 L 274.398438 109 L 274.398438 261 L 242 261 Z M 242 109 " clip-rule="nonzero"/></clipPath><clipPath id="3c49fe05aa"><path d="M 269 109 L 274.398438 109 L 274.398438 151 L 269 151 Z M 269 109 " clip-rule="nonzero"/></clipPath><clipPath id="84e53ab834"><path d="M 256 127 L 274.398438 127 L 274.398438 133 L 256 133 Z M 256 127 " clip-rule="nonzero"/></clipPath></defs><rect x="-37.5" width="450" fill="#ffffff" y="-37.499999" height="449.999989" fill-opacity="1"/><rect x="-37.5" width="450" fill="#ffffff" y="-37.499999" height="449.999989" fill-opacity="1"/><rect x="-37.5" width="450" fill="#3ea0e0" y="-37.499999" height="449.999989" fill-opacity="1"/><path fill="#dff0fe" d="M 162.214844 272.109375 C 129.390625 272.109375 102.6875 245.257812 102.6875 212.257812 C 102.6875 177.878906 152.175781 116.140625 162.203125 103.988281 C 172.195312 116.253906 221.738281 178.773438 221.738281 212.257812 C 221.738281 245.257812 195.035156 272.109375 162.214844 272.109375 Z M 162.214844 272.109375 " fill-opacity="1" fill-rule="nonzero"/><g clip-path="url(#b44ca935a7)"><path fill="#000000" d="M 162.191406 107.613281 C 175.101562 123.6875 219.449219 181.15625 219.449219 212.257812 C 219.449219 243.992188 193.777344 269.820312 162.214844 269.820312 C 130.652344 269.820312 104.976562 243.992188 104.976562 212.257812 C 104.976562 180.3125 149.25 123.527344 162.191406 107.613281 M 162.214844 100.398438 C 162.214844 100.398438 100.398438 172.894531 100.398438 212.257812 C 100.398438 246.574219 128.074219 274.398438 162.214844 274.398438 C 196.355469 274.398438 224.027344 246.574219 224.027344 212.257812 C 224.027344 173.933594 162.214844 100.398438 162.214844 100.398438 Z M 162.214844 100.398438 " fill-opacity="1" fill-rule="nonzero"/></g><path fill="#98ccfd" d="M 162.214844 272.109375 C 129.390625 272.109375 102.6875 245.257812 102.6875 212.257812 C 102.6875 203.121094 106.253906 191.183594 113.289062 176.765625 C 119.066406 174.183594 126.851562 171.371094 136.703125 171.371094 C 145.132812 171.371094 152.65625 175.65625 160.621094 180.195312 C 168.816406 184.859375 177.285156 189.6875 187.074219 189.6875 C 195.804688 189.6875 204.523438 186.816406 213.015625 181.140625 C 218.808594 193.734375 221.742188 204.199219 221.742188 212.25 C 221.738281 245.257812 195.035156 272.109375 162.214844 272.109375 Z M 162.214844 272.109375 " fill-opacity="1" fill-rule="nonzero"/><g clip-path="url(#d005d3bb75)"><path fill="#000000" d="M 136.703125 173.660156 C 144.527344 173.660156 151.796875 177.800781 159.488281 182.183594 C 167.9375 187 176.671875 191.976562 187.074219 191.976562 C 195.484375 191.976562 203.855469 189.460938 212.015625 184.5 C 216.949219 195.710938 219.449219 205.035156 219.449219 212.257812 C 219.449219 243.992188 193.777344 269.820312 162.214844 269.820312 C 130.652344 269.820312 104.976562 243.992188 104.976562 212.257812 C 104.976562 203.628906 108.34375 192.28125 114.980469 178.519531 C 120.460938 176.128906 127.703125 173.660156 136.703125 173.660156 M 136.703125 169.082031 C 126.054688 169.082031 117.582031 172.28125 111.597656 175.011719 C 104.960938 188.460938 100.398438 201.578125 100.398438 212.257812 C 100.398438 246.574219 128.074219 274.398438 162.214844 274.398438 C 196.355469 274.398438 224.027344 246.574219 224.027344 212.257812 C 224.027344 202.445312 219.960938 190.320312 213.933594 177.714844 C 208.074219 181.984375 198.800781 187.398438 187.074219 187.398438 C 168.757812 187.398438 154.828125 169.082031 136.703125 169.082031 Z M 269.820312 109.554688 L 274.398438 109.554688 L 274.398438 260.660156 L 269.820312 260.660156 Z M 269.820312 109.554688 " fill-opacity="1" fill-rule="nonzero"/></g><g clip-path="url(#f7f8afcfbd)"><path fill="#000000" d="M 272.109375 260.660156 L 244.632812 260.660156 C 243.371094 260.660156 242.34375 259.636719 242.34375 258.371094 C 242.34375 257.105469 243.371094 256.082031 244.632812 256.082031 L 272.109375 256.082031 C 273.371094 256.082031 274.398438 257.105469 274.398438 258.371094 C 274.398438 259.636719 273.371094 260.660156 272.109375 260.660156 Z M 272.109375 187.398438 L 244.632812 187.398438 C 243.371094 187.398438 242.34375 186.371094 242.34375 185.109375 C 242.34375 183.84375 243.371094 182.820312 244.632812 182.820312 L 272.109375 182.820312 C 273.371094 182.820312 274.398438 183.84375 274.398438 185.109375 C 274.398438 186.371094 273.371094 187.398438 272.109375 187.398438 Z M 272.109375 114.132812 L 244.632812 114.132812 C 243.371094 114.132812 242.34375 113.109375 242.34375 111.84375 C 242.34375 110.582031 243.371094 109.554688 244.632812 109.554688 L 272.109375 109.554688 C 273.371094 109.554688 274.398438 110.582031 274.398438 111.84375 C 274.398438 113.109375 273.371094 114.132812 272.109375 114.132812 Z M 272.109375 242.34375 L 258.371094 242.34375 C 257.105469 242.34375 256.082031 241.320312 256.082031 240.054688 C 256.082031 238.792969 257.105469 237.765625 258.371094 237.765625 L 272.109375 237.765625 C 273.371094 237.765625 274.398438 238.792969 274.398438 240.054688 C 274.398438 241.320312 273.371094 242.34375 272.109375 242.34375 Z M 272.109375 224.027344 L 258.371094 224.027344 C 257.105469 224.027344 256.082031 223.003906 256.082031 221.738281 C 256.082031 220.476562 257.105469 219.449219 258.371094 219.449219 L 272.109375 219.449219 C 273.371094 219.449219 274.398438 220.476562 274.398438 221.738281 C 274.398438 223.003906 273.371094 224.027344 272.109375 224.027344 Z M 272.109375 205.714844 L 258.371094 205.714844 C 257.105469 205.714844 256.082031 204.6875 256.082031 203.421875 C 256.082031 202.160156 257.105469 201.132812 258.371094 201.132812 L 272.109375 201.132812 C 273.371094 201.132812 274.398438 202.160156 274.398438 203.421875 C 274.398438 204.6875 273.371094 205.714844 272.109375 205.714844 Z M 272.109375 169.082031 L 258.371094 169.082031 C 257.105469 169.082031 256.082031 168.054688 256.082031 166.792969 C 256.082031 165.527344 257.105469 164.503906 258.371094 164.503906 L 272.109375 164.503906 C 273.371094 164.503906 274.398438 165.527344 274.398438 166.792969 C 274.398438 168.054688 273.371094 169.082031 272.109375 169.082031 Z M 272.109375 150.765625 L 258.371094 150.765625 C 257.105469 150.765625 256.082031 149.738281 256.082031 148.476562 C 256.082031 147.210938 257.105469 146.1875 258.371094 146.1875 L 272.109375 146.1875 C 273.371094 146.1875 274.398438 147.210938 274.398438 148.476562 C 274.398438 149.738281 273.371094 150.765625 272.109375 150.765625 Z M 272.109375 150.765625 " fill-opacity="1" fill-rule="nonzero"/></g><g clip-path="url(#3c49fe05aa)"><path fill="#000000" d="M 269.820312 109.554688 L 274.398438 109.554688 L 274.398438 150.765625 L 269.820312 150.765625 Z M 269.820312 109.554688 " fill-opacity="1" fill-rule="nonzero"/></g><g clip-path="url(#84e53ab834)"><path fill="#000000" d="M 272.109375 132.449219 L 258.371094 132.449219 C 257.105469 132.449219 256.082031 131.425781 256.082031 130.160156 C 256.082031 128.898438 257.105469 127.871094 258.371094 127.871094 L 272.109375 127.871094 C 273.371094 127.871094 274.398438 128.898438 274.398438 130.160156 C 274.398438 131.425781 273.371094 132.449219 272.109375 132.449219 Z M 272.109375 132.449219 " fill-opacity="1" fill-rule="nonzero"/></g></svg>