<svg xmlns="http://www.w3.org/2000/svg" xmlns:xlink="http://www.w3.org/1999/xlink" width="500" zoomAndPan="magnify" viewBox="0 0 375 374.999991" height="500" preserveAspectRatio="xMidYMid meet" version="1.0"><defs><clipPath id="dab67223e7"><path d="M 185 117.574219 L 190 117.574219 L 190 135 L 185 135 Z M 185 117.574219 " clip-rule="nonzero"/></clipPath><clipPath id="b52269795d"><path d="M 90.210938 178 L 284.460938 178 L 284.460938 257.074219 L 90.210938 257.074219 Z M 90.210938 178 " clip-rule="nonzero"/></clipPath><clipPath id="81e9775fd1"><path d="M 90.210938 178 L 284.460938 178 L 284.460938 257.074219 L 90.210938 257.074219 Z M 90.210938 178 " clip-rule="nonzero"/></clipPath></defs><rect x="-37.5" width="450" fill="#ffffff" y="-37.499999" height="449.999989" fill-opacity="1"/><rect x="-37.5" width="450" fill="#ffffff" y="-37.499999" height="449.999989" fill-opacity="1"/><rect x="-37.5" width="450" fill="#3ea0e0" y="-37.499999" height="449.999989" fill-opacity="1"/><path fill="#ffd064" d="M 128.355469 241.761719 C 122.554688 231.753906 119.230469 220.125 119.230469 207.738281 C 119.230469 170.179688 149.746094 139.6875 187.335938 139.6875 C 224.925781 139.6875 255.441406 170.179688 255.441406 207.738281 C 255.441406 220.125 252.117188 231.753906 246.316406 241.761719 L 128.355469 241.761719 " fill-opacity="1" fill-rule="evenodd"/><path fill="#000000" d="M 126.878906 242.613281 C 127.183594 243.144531 127.742188 243.464844 128.355469 243.464844 L 246.316406 243.464844 C 246.925781 243.464844 247.488281 243.144531 247.792969 242.613281 C 253.738281 232.351562 257.144531 220.445312 257.144531 207.738281 C 257.144531 169.246094 225.859375 137.988281 187.335938 137.988281 C 148.8125 137.988281 117.527344 169.246094 117.527344 207.738281 C 117.527344 220.445312 120.933594 232.351562 126.878906 242.613281 Z M 245.332031 240.0625 C 250.679688 230.492188 253.738281 219.472656 253.738281 207.738281 C 253.738281 171.121094 223.980469 141.390625 187.335938 141.390625 C 150.6875 141.390625 120.933594 171.121094 120.933594 207.738281 C 120.933594 219.472656 123.992188 230.492188 129.339844 240.0625 L 245.332031 240.0625 " fill-opacity="1" fill-rule="evenodd"/><path fill="#fcb860" d="M 132.863281 248.566406 C 124.296875 237.191406 119.230469 223.050781 119.230469 207.738281 C 119.230469 186.351562 129.125 167.253906 144.597656 154.773438 C 135.164062 166.445312 129.5 181.300781 129.5 197.476562 C 129.5 217.824219 138.453125 236.085938 152.644531 248.566406 L 132.863281 248.566406 " fill-opacity="1" fill-rule="evenodd"/><path fill="#000000" d="M 131.507812 249.589844 C 131.828125 250.015625 132.332031 250.269531 132.863281 250.269531 L 152.644531 250.269531 C 153.347656 250.269531 153.988281 249.828125 154.242188 249.164062 C 154.492188 248.5 154.292969 247.757812 153.773438 247.292969 C 139.941406 235.117188 131.203125 217.308594 131.203125 197.476562 C 131.203125 181.714844 136.722656 167.226562 145.925781 155.835938 C 146.472656 155.160156 146.417969 154.1875 145.808594 153.566406 C 145.183594 152.953125 144.210938 152.898438 143.53125 153.445312 C 127.675781 166.242188 117.527344 185.820312 117.527344 207.738281 C 117.527344 223.433594 122.730469 237.921875 131.507812 249.589844 Z M 134.59375 167.441406 C 126.027344 178.617188 120.933594 192.585938 120.933594 207.738281 C 120.933594 222.359375 125.683594 235.886719 133.714844 246.867188 L 148.335938 246.867188 C 135.65625 234.226562 127.796875 216.761719 127.796875 197.476562 C 127.796875 186.726562 130.246094 176.542969 134.59375 167.441406 " fill-opacity="1" fill-rule="evenodd"/><g clip-path="url(#dab67223e7)"><path fill="#000000" d="M 185.632812 119.273438 L 185.632812 132.882812 C 185.632812 133.828125 186.390625 134.585938 187.335938 134.585938 C 188.28125 134.585938 189.039062 133.828125 189.039062 132.882812 L 189.039062 119.273438 C 189.039062 118.332031 188.28125 117.574219 187.335938 117.574219 C 186.390625 117.574219 185.632812 118.332031 185.632812 119.273438 " fill-opacity="1" fill-rule="evenodd"/></g><path fill="#000000" d="M 230.128906 130.277344 L 223.316406 142.054688 C 222.851562 142.878906 223.128906 143.914062 223.941406 144.378906 C 224.753906 144.859375 225.792969 144.582031 226.269531 143.757812 L 233.082031 131.980469 C 233.546875 131.15625 233.265625 130.121094 232.457031 129.65625 C 231.644531 129.175781 230.605469 129.457031 230.128906 130.277344 " fill-opacity="1" fill-rule="evenodd"/><path fill="#000000" d="M 263.15625 162.03125 L 251.371094 168.835938 C 250.546875 169.3125 250.265625 170.351562 250.746094 171.160156 C 251.210938 171.972656 252.25 172.25 253.074219 171.785156 L 264.859375 164.980469 C 265.683594 164.503906 265.960938 163.464844 265.484375 162.65625 C 265.019531 161.84375 263.980469 161.566406 263.15625 162.03125 " fill-opacity="1" fill-rule="evenodd"/><path fill="#000000" d="M 141.589844 131.980469 L 148.402344 143.757812 C 148.878906 144.582031 149.917969 144.859375 150.730469 144.378906 C 151.539062 143.914062 151.820312 142.878906 151.355469 142.054688 L 144.542969 130.277344 C 144.066406 129.457031 143.027344 129.175781 142.214844 129.65625 C 141.40625 130.121094 141.125 131.15625 141.589844 131.980469 " fill-opacity="1" fill-rule="evenodd"/><path fill="#000000" d="M 109.8125 164.980469 L 121.597656 171.785156 C 122.421875 172.25 123.460938 171.972656 123.925781 171.160156 C 124.40625 170.351562 124.125 169.3125 123.300781 168.835938 L 111.515625 162.03125 C 110.691406 161.566406 109.652344 161.84375 109.1875 162.65625 C 108.722656 163.464844 108.988281 164.503906 109.8125 164.980469 " fill-opacity="1" fill-rule="evenodd"/><path fill="#ccf49f" d="M 91.988281 183.972656 C 91.988281 183.058594 92.347656 182.179688 93.011719 181.542969 C 93.652344 180.902344 94.542969 180.546875 95.445312 180.570312 C 158.019531 182.378906 282.683594 231.621094 282.683594 234.957031 C 282.683594 234.957031 282.683594 238.015625 282.683594 241.761719 C 282.683594 245.378906 281.246094 248.832031 278.691406 251.386719 C 276.136719 253.9375 272.679688 255.371094 269.0625 255.371094 C 233.957031 255.371094 140.710938 255.371094 105.609375 255.371094 C 98.09375 255.371094 91.988281 249.285156 91.988281 241.761719 C 91.988281 224.019531 91.988281 194.074219 91.988281 183.972656 " fill-opacity="1" fill-rule="evenodd"/><g clip-path="url(#b52269795d)"><path fill="#000000" d="M 90.285156 183.972656 C 90.285156 194.074219 90.285156 224.019531 90.285156 241.761719 C 90.285156 250.214844 97.148438 257.074219 105.609375 257.074219 C 140.710938 257.074219 233.957031 257.074219 269.0625 257.074219 C 273.117188 257.074219 277.03125 255.464844 279.902344 252.59375 C 282.777344 249.722656 284.386719 245.816406 284.386719 241.761719 C 284.386719 238.015625 284.386719 234.957031 284.386719 234.957031 C 284.386719 234.597656 284.292969 234.066406 283.761719 233.535156 C 283.320312 233.058594 282.003906 232.21875 279.890625 231.15625 C 259.058594 220.683594 152.03125 180.503906 95.5 178.871094 C 94.117188 178.84375 92.785156 179.363281 91.816406 180.332031 C 90.832031 181.289062 90.285156 182.605469 90.285156 183.972656 Z M 280.980469 235.660156 C 280.714844 235.476562 280.300781 235.222656 279.890625 234.984375 C 277.722656 233.789062 273.824219 231.992188 268.554688 229.761719 C 234.757812 215.433594 145.273438 183.722656 95.421875 182.273438 C 94.96875 182.257812 94.527344 182.433594 94.195312 182.75 C 93.878906 183.070312 93.691406 183.507812 93.691406 183.972656 L 93.691406 241.761719 C 93.691406 248.339844 99.023438 253.671875 105.609375 253.671875 C 140.710938 253.671875 233.957031 253.671875 269.0625 253.671875 C 272.226562 253.671875 275.261719 252.421875 277.496094 250.1875 C 279.730469 247.941406 280.980469 244.925781 280.980469 241.761719 L 280.980469 235.660156 " fill-opacity="1" fill-rule="evenodd"/></g><path fill="#95d6a4" d="M 282.683594 183.972656 C 282.683594 183.058594 282.324219 182.179688 281.671875 181.542969 C 281.019531 180.902344 280.128906 180.546875 279.222656 180.570312 C 216.652344 182.378906 91.988281 231.621094 91.988281 234.957031 C 91.988281 234.957031 91.988281 238.015625 91.988281 241.761719 C 91.988281 245.378906 93.425781 248.832031 95.980469 251.386719 C 98.53125 253.9375 101.992188 255.371094 105.609375 255.371094 C 140.710938 255.371094 233.957031 255.371094 269.0625 255.371094 C 276.589844 255.371094 282.683594 249.285156 282.683594 241.761719 C 282.683594 224.019531 282.683594 194.074219 282.683594 183.972656 " fill-opacity="1" fill-rule="evenodd"/><g clip-path="url(#81e9775fd1)"><path fill="#000000" d="M 284.386719 183.972656 C 284.386719 182.605469 283.839844 181.289062 282.855469 180.332031 C 281.886719 179.363281 280.566406 178.84375 279.199219 178.871094 C 222.636719 180.503906 115.613281 220.683594 94.78125 231.15625 C 92.667969 232.21875 91.351562 233.058594 90.910156 233.535156 C 90.378906 234.066406 90.285156 234.597656 90.285156 234.957031 C 90.285156 234.957031 90.285156 238.015625 90.285156 241.761719 C 90.285156 245.816406 91.894531 249.722656 94.769531 252.59375 C 97.65625 255.464844 101.550781 257.074219 105.609375 257.074219 C 140.710938 257.074219 233.957031 257.074219 269.0625 257.074219 C 277.523438 257.074219 284.386719 250.214844 284.386719 241.761719 Z M 93.691406 235.660156 L 93.691406 241.761719 C 93.691406 244.925781 94.941406 247.941406 97.175781 250.1875 C 99.410156 252.421875 102.445312 253.671875 105.609375 253.671875 C 140.710938 253.671875 233.957031 253.671875 269.0625 253.671875 C 275.644531 253.671875 280.980469 248.339844 280.980469 241.761719 L 280.980469 183.972656 C 280.980469 183.507812 280.792969 183.070312 280.476562 182.75 C 280.140625 182.433594 279.703125 182.257812 279.265625 182.257812 C 229.394531 183.722656 139.914062 215.433594 106.113281 229.761719 C 100.847656 231.992188 96.949219 233.789062 94.78125 234.984375 C 94.371094 235.222656 93.957031 235.476562 93.691406 235.660156 " fill-opacity="1" fill-rule="evenodd"/></g></svg>